<?xml version="1.0" encoding="utf-8"?>
<svg version="1.1" viewBox="-6.518 -4.888 1428.518 804.888" xmlns="http://www.w3.org/2000/svg">
  <g shape-rendering="crispEdges" stroke-linejoin="round" fill="none" stroke-width="3" stroke="hsl(220, 100%, 50%)">
    <polygon points="1422,200 1066.5,0 1422,0"/>
    <polygon points="1066.5,0 1066.5,100 888.75,100"/>
    <polygon points="888.75,100 711,0 711,100"/>
    <polygon points="888.75,200 888.75,100 711,200"/>
    <polygon points="888.75,100 1066.5,200 888.75,200"/>
    <polygon points="888.75,300 1066.5,200 1066.5,300"/>
    <polygon points="888.75,250 799.875,250 799.875,200"/>
    <polygon points="799.875,250 711,200 799.875,200"/>
    <polygon points="711,250 711,300 799.875,250"/>
    <polygon points="799.875,300 888.75,250 799.875,250"/>
    <polygon points="888.75,400 888.75,300 711,300"/>
    <polygon points="1066.5,300 1066.5,350 977.625,350"/>
    <polygon points="977.625,300 977.625,350 888.75,350"/>
    <polygon points="977.625,350 977.625,400 888.75,350"/>
    <polygon points="977.625,350 1066.5,400 1066.5,350"/>
    <polygon points="1422,200 1244.25,200 1244.25,300"/>
    <polygon points="1244.25,200 1244.25,300 1066.5,300"/>
    <polygon points="1244.25,400 1066.5,300 1244.25,300"/>
    <polygon points="1422,300 1422,400 1244.25,300"/>
    <polygon points="711,0 711,100 533.25,100"/>
    <polygon points="533.25,100 355.5,0 533.25,0"/>
    <polygon points="533.25,200 355.5,100 355.5,200"/>
    <polygon points="711,100 533.25,100 711,200"/>
    <polygon points="355.5,0 0,200 0,0"/>
    <polygon points="355.5,200 177.75,300 355.5,300"/>
    <polygon points="0,300 177.75,200 0,200"/>
    <polygon points="177.75,300 0,300 0,400"/>
    <polygon points="177.75,300 355.5,300 177.75,400"/>
    <polygon points="533.25,300 711,200 533.25,200"/>
    <polygon points="533.25,300 533.25,200 355.5,200"/>
    <polygon points="533.25,300 355.5,400 533.25,400"/>
    <polygon points="711,350 711,300 622.125,300"/>
    <polygon points="622.125,300 622.125,350 533.25,300"/>
    <polygon points="622.125,400 533.25,350 533.25,400"/>
    <polygon points="711,400 622.125,400 622.125,350"/>
    <polygon points="711,400 711,500 533.25,500"/>
    <polygon points="444.375,400 533.25,400 533.25,450"/>
    <polygon points="355.5,400 444.375,450 444.375,400"/>
    <polygon points="355.5,500 444.375,500 355.5,450"/>
    <polygon points="533.25,500 444.375,450 444.375,500"/>
    <polygon points="533.25,500 355.5,500 355.5,600"/>
    <polygon points="622.125,550 711,500 711,550"/>
    <polygon points="622.125,500 533.25,550 533.25,500"/>
    <polygon points="622.125,550 622.125,600 533.25,600"/>
    <polygon points="711,550 622.125,550 711,600"/>
    <polygon points="355.5,400 177.75,400 177.75,500"/>
    <polygon points="177.75,400 177.75,500 0,500"/>
    <polygon points="177.75,600 0,500 177.75,500"/>
    <polygon points="355.5,600 355.5,500 177.75,500"/>
    <polygon points="0,800 355.5,600 355.5,800"/>
    <polygon points="711,600 533.25,700 711,700"/>
    <polygon points="355.5,700 533.25,700 533.25,600"/>
    <polygon points="355.5,800 533.25,700 533.25,800"/>
    <polygon points="533.25,800 711,700 711,800"/>
    <polygon points="1244.25,400 1422,500 1244.25,500"/>
    <polygon points="1066.5,500 1244.25,400 1244.25,500"/>
    <polygon points="1155.375,550 1244.25,500 1155.375,500"/>
    <polygon points="1155.375,500 1066.5,550 1155.375,550"/>
    <polygon points="1066.5,550 1155.375,600 1066.5,600"/>
    <polygon points="1244.25,550 1244.25,600 1155.375,550"/>
    <polygon points="1422,500 1422,600 1244.25,500"/>
    <polygon points="888.75,400 1066.5,500 1066.5,400"/>
    <polygon points="888.75,400 888.75,450 799.875,450"/>
    <polygon points="799.875,400 711,400 711,450"/>
    <polygon points="711,500 799.875,450 799.875,500"/>
    <polygon points="888.75,500 888.75,450 799.875,500"/>
    <polygon points="888.75,600 888.75,500 711,500"/>
    <polygon points="1066.5,600 1066.5,500 888.75,500"/>
    <polygon points="1066.5,700 1066.5,600 888.75,700"/>
    <polygon points="888.75,700 711,600 711,700"/>
    <polygon points="888.75,800 711,700 711,800"/>
    <polygon points="1066.5,700 888.75,700 888.75,800"/>
    <polygon points="1422,600 1422,800 1066.5,800"/>
  </g>
  <g fill="hsl(220, 62%, 45%)" stroke-width="3" stroke="hsl(220, 43%, 13%)"/>
</svg>